<svg width="23" height="26" viewBox="0 0 23 26" fill="none" xmlns="http://www.w3.org/2000/svg">
<path d="M13.4566 17.6072C13.3695 17.4934 13.3865 17.4095 13.3969 17.3321C13.4696 16.7625 13.2356 16.3365 12.7644 16.0428C12.1206 15.6418 11.4058 15.4006 10.6885 15.1707C9.54614 14.8044 8.43599 14.3711 7.45816 13.6539C7.04912 13.3538 6.73447 12.9762 6.48517 12.5397C6.20522 12.0508 6.2383 11.5546 6.49566 11.077C6.66751 10.7583 6.87969 10.4574 7.1653 10.2259C7.92852 9.60624 8.52716 8.85915 8.95557 7.9741C9.01204 7.85712 9.04351 7.71754 9.18631 7.63202C9.32185 7.76272 9.27102 7.93296 9.26618 8.07898C9.24278 8.74459 9.33395 9.39567 9.54452 10.0233C9.89467 11.0673 10.6635 11.7345 11.6059 12.2331C12.3054 12.6035 13.0169 12.9528 13.6341 13.4619C14.2102 13.9371 14.5684 14.5285 14.6596 15.2715C14.7039 15.6305 14.5724 15.9629 14.4474 16.2873C14.2465 16.8101 13.9125 17.2385 13.4583 17.6072H13.4566Z" fill="#FF5722"/>
<path d="M10.6797 11.294C10.812 10.885 10.9217 10.5429 10.979 10.1871C11.1533 9.10683 10.904 8.14675 10.2303 7.27865C9.63408 6.51139 8.84504 6.00392 7.9858 5.61989C6.48033 4.94703 5.06684 4.13136 3.79856 3.08173C3.08213 2.48793 2.47059 1.79006 2.05993 0.9397C1.99942 0.814648 1.9131 0.683141 1.997 0.5C2.39072 0.730742 2.74409 0.992949 3.12812 1.20594C4.14548 1.7715 5.23223 2.13698 6.35609 2.42097C7.6171 2.73965 8.90877 2.95183 10.1173 3.45931C10.7265 3.71506 11.3154 4.0047 11.7898 4.48151C12.3562 5.0511 12.6369 5.73768 12.67 6.53882C12.7273 7.92166 12.2521 9.14556 11.5671 10.309C11.4308 10.5397 11.2711 10.7575 11.117 10.977C11.0258 11.1061 10.9306 11.2376 10.6805 11.2932L10.6797 11.294Z" fill="#FF5722"/>
<path d="M22.4766 6.23386C22.4362 6.57109 22.295 6.81716 22.1716 7.06001C21.2583 8.85754 19.9634 10.2952 18.1401 11.2037C16.946 11.7991 15.6794 12.1154 14.3336 12.1049C13.4841 12.0984 12.6418 12.0702 11.8269 11.7999C11.7503 11.7749 11.6736 11.7491 11.5994 11.7176C11.4122 11.6385 11.3574 11.5369 11.4994 11.3497C11.7842 10.9746 12.027 10.5712 12.2513 10.1581C12.7168 9.30127 13.0242 8.39202 13.0968 7.38676C13.2848 7.43436 13.3332 7.5812 13.4042 7.69899C14.1634 8.95597 15.5099 9.54734 16.9484 9.31418C18.6249 9.04148 20.0062 8.18871 21.3172 7.18183C21.6972 6.88978 22.0603 6.57593 22.4766 6.23466V6.23386Z" fill="#FF5722"/>
<path d="M8.00113 24.5189C7.86156 23.9397 7.9261 23.3967 7.95515 22.8465C8.00033 21.9816 8.15604 21.1409 8.38597 20.3115C8.69336 19.2054 9.22503 18.2179 10.052 17.4135C10.5869 16.894 11.2154 16.5116 11.9294 16.2719C12.1456 16.1993 12.3134 16.2364 12.4925 16.3623C12.9895 16.7116 13.1767 17.2893 12.9572 17.8516C12.8177 18.209 12.5853 18.5011 12.3054 18.7593C11.1299 19.8428 9.94711 20.9174 9.10321 22.3035C8.73854 22.9029 8.45778 23.5395 8.18831 24.1825C8.14313 24.2898 8.14797 24.4229 7.99871 24.5189H8.00113Z" fill="#FF5722"/>
<path d="M0.0582852 25.4992C-0.0119055 25.4153 -0.00383759 25.3467 0.00745747 25.2814C0.312424 23.554 0.769874 21.8775 1.6517 20.3422C2.3052 19.2046 3.1491 18.2502 4.31007 17.608C4.84416 17.3127 5.42182 17.1417 6.02208 17.04C6.22216 17.0061 6.30123 17.0941 6.27299 17.2853C6.26169 17.3643 6.23588 17.4418 6.21087 17.5184C6.05031 18.0033 5.8462 18.4704 5.65257 18.9424C5.34115 19.7008 4.82964 20.2793 4.16485 20.7488C3.5291 21.1982 2.93691 21.7113 2.39394 22.264C1.56537 23.1079 0.844905 24.0454 0.319685 25.1168C0.255142 25.2483 0.19544 25.3822 0.0582852 25.5V25.4992Z" fill="#FF5722"/>
<path d="M11.927 2.89778C11.9383 2.39192 12.0367 1.93044 12.4119 1.56496C12.8209 1.16722 13.3074 1.11558 13.8092 1.39957C14.3796 1.72309 14.6507 2.25557 14.8161 2.84615C14.9468 3.31408 14.971 3.79735 14.7991 4.27336C14.6805 4.5993 14.4998 4.87684 14.2078 5.06482C13.6527 5.42223 13.0573 5.23263 12.5692 4.6711C12.1359 4.17251 11.9302 3.55854 11.927 2.89697V2.89778Z" fill="#FF5722"/>
<path d="M7.10318 13.9702C7.82203 14.4768 8.52716 14.7947 9.26941 15.0392C9.61713 15.1537 9.64779 15.2304 9.48321 15.524C8.68932 16.944 7.7002 18.1985 6.36658 19.1554C6.23588 19.249 6.09711 19.3305 5.96076 19.416C5.92768 19.437 5.89138 19.4523 5.80263 19.3918C6.6312 17.7169 7.04347 15.9202 7.10318 13.971V13.9702Z" fill="#FF5722"/>
</svg>
