<svg width="17" height="16" viewBox="0 0 17 16" fill="none" xmlns="http://www.w3.org/2000/svg">
<path d="M4.48463 7.33356H12.1826C12.7573 7.33356 13.0626 6.65356 12.6806 6.22356L8.83196 1.89356C8.76953 1.8231 8.69286 1.76668 8.60702 1.72805C8.52117 1.68941 8.4281 1.66943 8.33396 1.66943C8.23982 1.66943 8.14675 1.68941 8.06091 1.72805C7.97506 1.76668 7.89839 1.8231 7.83596 1.89356L3.98596 6.22356C3.60396 6.65356 3.9093 7.33356 4.48463 7.33356ZM7.8353 14.1062C7.89772 14.1767 7.97439 14.2331 8.06024 14.2717C8.14609 14.3104 8.23916 14.3304 8.3333 14.3304C8.42744 14.3304 8.5205 14.3104 8.60635 14.2717C8.6922 14.2331 8.76887 14.1767 8.8313 14.1062L12.68 9.77623C13.0626 9.34689 12.7573 8.66689 12.182 8.66689H4.48463C3.90996 8.66689 3.60463 9.34689 3.98663 9.77689L7.8353 14.1062Z" fill="#9E9E9E"/>
</svg>
