<svg width="21" height="21" viewBox="0 0 21 21" fill="none" xmlns="http://www.w3.org/2000/svg">
<path d="M10.5 0C4.725 0 0 4.725 0 10.5C0 16.275 4.725 21 10.5 21C16.275 21 21 16.275 21 10.5C21 4.725 16.275 0 10.5 0ZM10.5 2.625C12.2063 2.625 13.7812 3.15 15.0938 4.06875L4.06875 15.0938C3.15 13.7812 2.625 12.2063 2.625 10.5C2.625 6.16875 6.16875 2.625 10.5 2.625ZM10.5 18.375C8.79375 18.375 7.21875 17.85 5.90625 16.9312L16.9312 5.90625C17.85 7.21875 18.375 8.79375 18.375 10.5C18.375 14.8313 14.8313 18.375 10.5 18.375Z" fill="#F02E06"/>
</svg>
