<svg width="26" height="26" viewBox="0 0 26 26" fill="none" xmlns="http://www.w3.org/2000/svg">
<path opacity="0.2" d="M26 13.5C26 20.127 20.627 25.5 14 25.5C7.373 25.5 2 20.127 2 13.5C2 6.873 7.373 1.5 14 1.5C20.627 1.5 26 6.873 26 13.5Z" fill="#CF5074"/>
<path fill-rule="evenodd" clip-rule="evenodd" d="M11.547 9.61604C11.6488 9.53121 11.7802 9.4903 11.9122 9.5023C12.0442 9.5143 12.1661 9.57823 12.251 9.68004L14.334 12.18C14.4151 12.2823 14.453 12.4122 14.4397 12.5421C14.4263 12.6719 14.3627 12.7914 14.2624 12.8749C14.1621 12.9585 14.0331 12.9995 13.903 12.9893C13.7729 12.979 13.6519 12.9183 13.566 12.82L11.483 10.32C11.3982 10.2182 11.3572 10.0868 11.3692 9.95479C11.3812 9.82278 11.4452 9.70093 11.547 9.61604Z" fill="#CF5074"/>
<path fill-rule="evenodd" clip-rule="evenodd" d="M11.5471 15.3839C11.4451 15.2992 11.381 15.1774 11.3688 15.0454C11.3566 14.9134 11.3974 14.7819 11.4821 14.6799L13.5661 12.1799C13.6075 12.1277 13.659 12.0843 13.7175 12.0523C13.7759 12.0202 13.8402 12.0002 13.9065 11.9934C13.9729 11.9865 14.0399 11.993 14.1036 12.0125C14.1674 12.0319 14.2266 12.0639 14.2779 12.1066C14.3291 12.1493 14.3712 12.2018 14.4019 12.261C14.4325 12.3202 14.451 12.385 14.4562 12.4514C14.4615 12.5179 14.4534 12.5847 14.4324 12.648C14.4114 12.7113 14.378 12.7698 14.3341 12.8199L12.2511 15.3199C12.1662 15.4218 12.0444 15.4857 11.9123 15.4977C11.7803 15.5097 11.6489 15.4688 11.5471 15.3839Z" fill="#CF5074"/>
<path fill-rule="evenodd" clip-rule="evenodd" d="M14 12.5C14 12.6326 13.9473 12.7598 13.8536 12.8536C13.7598 12.9473 13.6326 13 13.5 13H6C5.86739 13 5.74021 12.9473 5.64645 12.8536C5.55268 12.7598 5.5 12.6326 5.5 12.5C5.5 12.3674 5.55268 12.2402 5.64645 12.1464C5.74021 12.0527 5.86739 12 6 12H13.5C13.6326 12 13.7598 12.0527 13.8536 12.1464C13.9473 12.2402 14 12.3674 14 12.5ZM19 19.5C19 19.6326 18.9473 19.7598 18.8536 19.8536C18.7598 19.9473 18.6326 20 18.5 20H9.3C9.16739 20 9.04021 19.9473 8.94645 19.8536C8.85268 19.7598 8.8 19.6326 8.8 19.5C8.8 19.3674 8.85268 19.2402 8.94645 19.1464C9.04021 19.0527 9.16739 19 9.3 19H18.5C18.6326 19 18.7598 19.0527 18.8536 19.1464C18.9473 19.2402 19 19.3674 19 19.5ZM19 5.5C19 5.63261 18.9473 5.75979 18.8536 5.85355C18.7598 5.94732 18.6326 6 18.5 6H9.326C9.19339 6 9.06621 5.94732 8.97245 5.85355C8.87868 5.75979 8.826 5.63261 8.826 5.5C8.826 5.36739 8.87868 5.24021 8.97245 5.14645C9.06621 5.05268 9.19339 5 9.326 5H18.5C18.6326 5 18.7598 5.05268 18.8536 5.14645C18.9473 5.24021 19 5.36739 19 5.5Z" fill="#CF5074"/>
<path fill-rule="evenodd" clip-rule="evenodd" d="M9.25 20C9.11739 20 8.99021 19.9473 8.89645 19.8536C8.80268 19.7598 8.75 19.6326 8.75 19.5V15.5C8.75 15.3674 8.80268 15.2402 8.89645 15.1464C8.99021 15.0527 9.11739 15 9.25 15C9.38261 15 9.50979 15.0527 9.60355 15.1464C9.69732 15.2402 9.75 15.3674 9.75 15.5V19.5C9.75 19.6326 9.69732 19.7598 9.60355 19.8536C9.50979 19.9473 9.38261 20 9.25 20ZM9.25 10C9.11739 10 8.99021 9.94732 8.89645 9.85355C8.80268 9.75979 8.75 9.63261 8.75 9.5V5.5C8.75 5.36739 8.80268 5.24021 8.89645 5.14645C8.99021 5.05268 9.11739 5 9.25 5C9.38261 5 9.50979 5.05268 9.60355 5.14645C9.69732 5.24021 9.75 5.36739 9.75 5.5V9.5C9.75 9.63261 9.69732 9.75979 9.60355 9.85355C9.50979 9.94732 9.38261 10 9.25 10ZM18.6 20C18.4674 20 18.3402 19.9473 18.2464 19.8536C18.1527 19.7598 18.1 19.6326 18.1 19.5V5.5C18.1 5.36739 18.1527 5.24021 18.2464 5.14645C18.3402 5.05268 18.4674 5 18.6 5C18.7326 5 18.8598 5.05268 18.9536 5.14645C19.0473 5.24021 19.1 5.36739 19.1 5.5V19.5C19.1 19.6326 19.0473 19.7598 18.9536 19.8536C18.8598 19.9473 18.7326 20 18.6 20Z" fill="#CF5074"/>
<path fill-rule="evenodd" clip-rule="evenodd" d="M13 24C19.351 24 24.5 18.851 24.5 12.5C24.5 6.149 19.351 1 13 1C6.649 1 1.5 6.149 1.5 12.5C1.5 18.851 6.649 24 13 24ZM13 25C19.904 25 25.5 19.404 25.5 12.5C25.5 5.596 19.904 0 13 0C6.096 0 0.5 5.596 0.5 12.5C0.5 19.404 6.096 25 13 25Z" fill="#CF5074"/>
</svg>
