<svg width="24" height="25" viewBox="0 0 24 25" fill="none" xmlns="http://www.w3.org/2000/svg">
<path d="M21.5931 7.70301C21.4792 7.28041 21.2566 6.89501 20.9475 6.58518C20.6383 6.27534 20.2534 6.05187 19.8311 5.93701C18.2651 5.50701 12.0001 5.50001 12.0001 5.50001C12.0001 5.50001 5.73609 5.49301 4.16909 5.90401C3.74701 6.02415 3.36291 6.25078 3.05365 6.56214C2.7444 6.8735 2.52037 7.25913 2.40309 7.68201C1.99009 9.24801 1.98609 12.496 1.98609 12.496C1.98609 12.496 1.98209 15.76 2.39209 17.31C2.62209 18.167 3.29709 18.844 4.15509 19.075C5.73709 19.505 11.9851 19.512 11.9851 19.512C11.9851 19.512 18.2501 19.519 19.8161 19.109C20.2386 18.9943 20.6238 18.7714 20.9337 18.4622C21.2436 18.153 21.4675 17.7682 21.5831 17.346C21.9971 15.781 22.0001 12.534 22.0001 12.534C22.0001 12.534 22.0201 9.26901 21.5931 7.70301ZM9.99609 15.505L10.0011 9.50501L15.2081 12.51L9.99609 15.505Z" fill="#FF5722"/>
</svg>
