<svg width="23" height="25" viewBox="0 0 23 25" fill="none" xmlns="http://www.w3.org/2000/svg">
<path d="M13.4566 17.1072C13.3695 16.9934 13.3865 16.9095 13.3969 16.8321C13.4696 16.2625 13.2356 15.8365 12.7644 15.5428C12.1206 15.1418 11.4058 14.9006 10.6885 14.6707C9.54614 14.3044 8.43599 13.8711 7.45816 13.1539C7.04912 12.8538 6.73447 12.4762 6.48517 12.0397C6.20522 11.5508 6.2383 11.0546 6.49566 10.577C6.66751 10.2583 6.87969 9.9574 7.1653 9.72585C7.92852 9.10624 8.52716 8.35915 8.95557 7.4741C9.01204 7.35712 9.04351 7.21754 9.18631 7.13202C9.32185 7.26272 9.27102 7.43296 9.26618 7.57898C9.24278 8.24459 9.33395 8.89567 9.54452 9.52335C9.89467 10.5673 10.6635 11.2345 11.6059 11.7331C12.3054 12.1035 13.0169 12.4528 13.6341 12.9619C14.2102 13.4371 14.5684 14.0285 14.6596 14.7715C14.7039 15.1305 14.5724 15.4629 14.4474 15.7873C14.2465 16.3101 13.9125 16.7385 13.4583 17.1072H13.4566Z" fill="#FF5722"/>
<path d="M10.6797 10.794C10.812 10.385 10.9217 10.0429 10.979 9.68713C11.1533 8.60683 10.904 7.64675 10.2303 6.77865C9.63408 6.01139 8.84504 5.50392 7.9858 5.11989C6.48033 4.44703 5.06684 3.63136 3.79856 2.58173C3.08213 1.98793 2.47059 1.29006 2.05993 0.4397C1.99942 0.314648 1.9131 0.183141 1.997 0C2.39072 0.230742 2.74409 0.492949 3.12812 0.705941C4.14548 1.2715 5.23223 1.63698 6.35609 1.92097C7.6171 2.23965 8.90877 2.45183 10.1173 2.95931C10.7265 3.21506 11.3154 3.5047 11.7898 3.98151C12.3562 4.5511 12.6369 5.23768 12.67 6.03882C12.7273 7.42166 12.2521 8.64556 11.5671 9.80895C11.4308 10.0397 11.2711 10.2575 11.117 10.477C11.0258 10.6061 10.9306 10.7376 10.6805 10.7932L10.6797 10.794Z" fill="#FF5722"/>
<path d="M22.4766 5.73386C22.4362 6.07109 22.295 6.31716 22.1716 6.56001C21.2583 8.35754 19.9634 9.79524 18.1401 10.7037C16.946 11.2991 15.6794 11.6154 14.3336 11.6049C13.4841 11.5984 12.6418 11.5702 11.8269 11.2999C11.7503 11.2749 11.6736 11.2491 11.5994 11.2176C11.4122 11.1385 11.3574 11.0369 11.4994 10.8497C11.7842 10.4746 12.027 10.0712 12.2513 9.65808C12.7168 8.80127 13.0242 7.89202 13.0968 6.88676C13.2848 6.93436 13.3332 7.0812 13.4042 7.19899C14.1634 8.45597 15.5099 9.04734 16.9484 8.81418C18.6249 8.54148 20.0062 7.68871 21.3172 6.68183C21.6972 6.38978 22.0603 6.07593 22.4766 5.73466V5.73386Z" fill="#FF5722"/>
<path d="M8.00113 24.0189C7.86156 23.4397 7.9261 22.8967 7.95515 22.3465C8.00033 21.4816 8.15604 20.6409 8.38597 19.8115C8.69336 18.7054 9.22503 17.7179 10.052 16.9135C10.5869 16.394 11.2154 16.0116 11.9294 15.7719C12.1456 15.6993 12.3134 15.7364 12.4925 15.8623C12.9895 16.2116 13.1767 16.7893 12.9572 17.3516C12.8177 17.709 12.5853 18.0011 12.3054 18.2593C11.1299 19.3428 9.94711 20.4174 9.10321 21.8035C8.73854 22.4029 8.45778 23.0395 8.18831 23.6825C8.14313 23.7898 8.14797 23.9229 7.99871 24.0189H8.00113Z" fill="#FF5722"/>
<path d="M0.0582852 24.9992C-0.0119055 24.9153 -0.00383759 24.8467 0.00745747 24.7814C0.312424 23.054 0.769874 21.3775 1.6517 19.8422C2.3052 18.7046 3.1491 17.7502 4.31007 17.108C4.84416 16.8127 5.42182 16.6417 6.02208 16.54C6.22216 16.5061 6.30123 16.5941 6.27299 16.7853C6.26169 16.8643 6.23588 16.9418 6.21087 17.0184C6.05031 17.5033 5.8462 17.9704 5.65257 18.4424C5.34115 19.2008 4.82964 19.7793 4.16485 20.2488C3.5291 20.6982 2.93691 21.2113 2.39394 21.764C1.56537 22.6079 0.844905 23.5454 0.319685 24.6168C0.255142 24.7483 0.19544 24.8822 0.0582852 25V24.9992Z" fill="#FF5722"/>
<path d="M11.927 2.39778C11.9383 1.89192 12.0367 1.43044 12.4119 1.06496C12.8209 0.667215 13.3074 0.615581 13.8092 0.899571C14.3796 1.22309 14.6507 1.75557 14.8161 2.34615C14.9468 2.81408 14.971 3.29735 14.7991 3.77336C14.6805 4.0993 14.4998 4.37684 14.2078 4.56482C13.6527 4.92223 13.0573 4.73263 12.5692 4.1711C12.1359 3.67251 11.9302 3.05854 11.927 2.39697V2.39778Z" fill="#FF5722"/>
<path d="M7.10318 13.4702C7.82203 13.9768 8.52716 14.2947 9.26941 14.5392C9.61713 14.6537 9.64779 14.7304 9.48321 15.024C8.68932 16.444 7.7002 17.6985 6.36658 18.6554C6.23588 18.749 6.09711 18.8305 5.96076 18.916C5.92768 18.937 5.89138 18.9523 5.80263 18.8918C6.6312 17.2169 7.04347 15.4202 7.10318 13.471V13.4702Z" fill="#FF5722"/>
</svg>
