<svg width="70" height="70" viewBox="0 0 70 70" fill="none" xmlns="http://www.w3.org/2000/svg">
<path d="M17.1875 45.001C12.5276 45.001 8.75 42.0849 8.75 37.8091C8.75 33.5334 12.5276 30.0672 17.1875 30.0672C17.5044 30.0672 17.8172 30.0832 18.125 30.1145V30.0672H18.2411C18.1645 29.5036 18.125 28.9294 18.125 28.3468C18.125 20.7454 24.8407 14.5833 33.125 14.5833C38.7349 14.5833 43.6255 17.409 46.1985 21.5939C46.8273 21.509 47.4705 21.4651 48.125 21.4651C55.3737 21.4651 61.25 26.8569 61.25 33.5081C61.25 38.9832 57.268 43.157 51.8164 44.5328M34.5857 55.4167V35.6586M34.5857 35.6586L25.9766 43.8071M34.5857 35.6586L43.2031 43.8071" stroke="black" stroke-width="2" stroke-linecap="round" stroke-linejoin="round"/>
</svg>
