<svg width="685" height="438" viewBox="0 0 685 438" fill="none" xmlns="http://www.w3.org/2000/svg">
<path d="M518.91 305.158L509.715 278.185L494.361 283.416L463 191.396L428.037 203.308L428.142 203.621L416.865 252.299L400.82 321.549L410.18 342.215L443.194 330.965L455.212 326.868L468.591 322.307L479.514 354.365L514.478 342.453L503.554 310.395L518.91 305.158ZM455.336 296.717L447.405 299.42L432.216 304.597L442.583 253.124L443.558 248.853L459.396 295.332L455.336 296.717Z" fill="#9DC2E7"/>
<path opacity="0.25" d="M503.554 310.394L514.478 342.452L492.208 332.926L456.615 204.682L443.558 248.854L437.512 273.873L416.866 252.297L428.143 203.62L428.038 203.307L463 191.396L494.36 283.417L509.714 278.185L518.91 305.158L503.554 310.394Z" fill="#010101"/>
<path opacity="0.25" d="M455.212 326.867L443.194 330.964L444.96 306.197V301.682L447.405 299.42L448.978 297.967L455.335 296.717C455.336 296.717 454.942 314.909 455.212 326.867Z" fill="#010101"/>
<path d="M455.338 296.716C455.338 296.716 452.334 292.944 447.09 293.38C441.846 293.816 438.92 295.783 438.744 301.245C438.568 306.708 439.871 334.237 438.674 345.162C437.477 356.087 444.925 357.179 445.352 349.095C445.78 341.011 442.615 315.666 444.961 311.515C447.309 307.364 445.88 316.103 448.342 318.944C450.805 321.784 453.426 316.759 450.805 309.986C448.182 303.212 455.338 296.716 455.338 296.716Z" fill="url(#paint0_linear_2_32)"/>
<path d="M135.161 255.93C134.263 255.93 133.598 255.881 133.311 255.761C132.976 255.62 131.954 255.194 123.032 239.268L124.636 238.37C127.968 244.317 133.021 252.973 134.091 254.08C135.062 254.237 140.398 253.865 145.126 253.39L145.311 255.22C142.334 255.518 137.766 255.93 135.161 255.93Z" fill="#F26647"/>
<path d="M167.503 263.653V264.186C167.503 264.186 167.016 274.295 159.448 273.859C159.429 273.859 159.411 273.854 159.392 273.854C154.712 273.551 148.919 271.367 145.035 269.745C142.594 268.724 140.902 267.924 140.714 267.956C140.222 268.034 146.446 293.927 146.363 295.402C146.354 295.6 146.308 295.811 146.239 296.028C145.798 297.43 144.258 299.112 143.334 299.251C143.237 299.265 143.04 299.085 142.76 298.735C139.946 295.237 128.807 274.917 128.503 268.282C128.177 260.991 131.863 256.6 136.861 255.763C140.548 255.147 151.329 256.632 156.73 257.455C158.648 257.749 159.884 257.956 159.884 257.956L167.503 263.653Z" fill="#0A2533"/>
<path opacity="0.25" d="M146.364 295.402C146.355 295.6 146.309 295.811 146.24 296.028C145.799 297.43 144.259 299.112 143.335 299.251C143.238 299.265 143.041 299.085 142.761 298.735C146.724 293.14 136.365 265.901 138.618 265.823C139.73 265.786 142.19 267.676 145.036 269.745C142.595 268.724 140.903 267.924 140.715 267.956C140.222 268.034 146.447 293.926 146.364 295.402Z" fill="#010101"/>
<path opacity="0.25" d="M167.503 263.653V264.186C167.503 264.186 167.016 274.295 159.448 273.859C160.937 272.669 161.213 270.572 161.102 268.034C160.974 265.096 158.256 260.067 156.73 257.456C158.648 257.75 159.884 257.957 159.884 257.957L167.503 263.653Z" fill="#010101"/>
<path d="M151.398 230.459C151.146 230.855 150.98 231.186 150.98 231.438C150.98 231.438 150.971 231.423 150.953 231.392C150.865 231.236 150.548 230.689 150.14 230.054C149.45 228.988 148.498 227.663 147.923 227.502C146.999 227.249 144.54 230.356 141.216 230.605C140.995 230.625 140.775 230.628 140.549 230.62C136.89 230.454 133.009 225.264 136.126 219.149C137.216 221.388 139.455 221.443 139.455 221.443C139.455 221.443 138.089 221.168 138.039 219.475C142.024 220.183 144.099 217.181 147.542 218.275C150.98 219.364 150.765 221.442 150.765 221.442C150.765 221.442 153.385 220.403 154.203 223.681C154.86 226.303 152.41 228.887 151.398 230.459Z" fill="#0A2533"/>
<path d="M150.953 231.393C150.719 232.22 150.272 233.122 149.67 233.852C148.94 234.745 147.974 235.397 146.884 235.37C144.558 235.315 142.245 232.193 141.216 230.606C144.54 230.358 146.999 227.251 147.923 227.503C148.498 227.664 149.449 228.988 150.14 230.055C150.547 230.69 150.865 231.237 150.953 231.393Z" fill="url(#paint1_linear_2_32)"/>
<path d="M154.313 231.709C154.313 231.709 152.566 235.7 151.909 234.826C151.555 234.353 150.534 234.041 149.67 233.851C150.273 233.121 150.719 232.219 150.953 231.392C150.972 231.423 150.98 231.438 150.98 231.438C150.98 231.185 151.146 230.854 151.398 230.459C152.667 231.416 154.313 231.709 154.313 231.709Z" fill="url(#paint2_linear_2_32)"/>
<path d="M166.602 265.414C163.816 265.005 156.281 256.812 156.281 253.286C156.281 252.789 156.226 252.237 156.134 251.636C155.555 247.967 153.436 242.588 152.553 238.786C151.528 234.363 153.003 232.708 153.003 232.708C156.433 226.81 164.195 238.501 168.622 247.875L168.627 247.88C170.116 251.038 171.101 253.971 171.192 255.935C171.509 262.572 169.388 265.823 166.602 265.414Z" fill="#5462AD"/>
<path opacity="0.25" d="M166.602 265.414C163.816 265.005 156.281 256.812 156.281 253.286C156.281 252.789 156.226 252.237 156.134 251.636L156.116 250.064L158.846 235.756C158.846 235.756 162.616 240.239 163.218 248.266C163.816 256.293 172.654 258.04 168.626 247.88C170.115 251.038 171.1 253.971 171.191 255.935C171.509 262.572 169.388 265.823 166.602 265.414Z" fill="#010101"/>
<path d="M160.758 247.718C160.685 247.781 160.556 247.832 160.386 247.879C159.094 248.236 155.329 248.182 153.761 247.874C153.527 247.828 153.338 247.773 153.219 247.718C152.185 247.226 153.219 246.022 152.893 243.893C152.566 241.76 151.747 235.535 154.915 233.622C158.229 231.622 160.647 239.193 160.758 242.964C160.869 246.735 161.471 247.116 160.758 247.718Z" fill="#5462AD"/>
<path d="M160.386 247.879C160.386 247.879 160.235 257.087 158.478 261.432C158.478 261.437 158.478 261.437 158.478 261.441C157.931 262.793 157.228 263.671 156.322 263.653C152.511 263.57 143.951 254.518 143.17 254.187C142.393 253.86 138.499 254.435 138.623 253.86C138.747 253.286 140.264 252.016 141.9 251.405C143.542 250.79 143.252 251.157 153.78 255.994C153.637 255.065 153.697 251.047 153.743 248.771C153.748 248.426 153.758 248.123 153.762 247.875C155.33 248.182 159.094 248.237 160.386 247.879Z" fill="url(#paint3_linear_2_32)"/>
<path d="M149.504 301.627C149.771 303.268 138.746 314.49 139.32 311.543C139.89 308.592 143.334 299.25 143.334 299.25C144.258 299.111 145.798 297.43 146.239 296.027C147.141 297.59 149.279 300.266 149.504 301.627Z" fill="#5462AD"/>
<path opacity="0.25" d="M159.448 267.162C159.448 267.162 141.751 263.839 138.255 265.446C134.759 267.052 144.651 295.019 144.651 295.019" stroke="white" stroke-width="0.4597" stroke-miterlimit="10"/>
<path opacity="0.25" d="M158.478 261.432C158.814 259.583 159.067 254.209 158.138 252.085C157.513 250.65 155.187 249.418 153.742 248.771C153.747 248.426 153.757 248.123 153.761 247.875C155.329 248.183 159.094 248.237 160.386 247.88C160.386 247.879 160.235 257.087 158.478 261.432Z" fill="#010101"/>
<path d="M444.487 199.151C444.129 200.53 443.531 202.305 442.602 204.681C441.278 208.088 439.278 212.731 436.331 219.204C436.258 222.492 435.21 243.46 434.925 248.287C434.888 248.876 434.865 249.225 434.856 249.271C434.815 249.482 434.056 249.887 433.229 250.094C432.447 250.296 431.611 250.323 431.251 249.845C430.511 248.862 425.514 229.032 425.271 224.363C425.023 219.692 424.779 220.758 430.511 202.162C429.118 202.815 420.089 202.571 420.089 202.571C420.089 202.571 421.744 225.346 421.753 225.511C421.753 225.534 421.739 225.589 421.707 225.667C421.602 225.98 421.27 226.675 420.912 227.024C420.751 227.184 420.585 227.276 420.433 227.23C420.346 227.208 420.134 227.014 419.827 226.688C418.094 224.848 413.34 218.661 410.765 212.891C407.735 206.091 406.994 201.337 409.864 196.588C412.733 191.835 427.26 191.471 427.26 191.471C428.18 191.728 430.294 191.981 432.386 192.478C433.002 192.621 433.618 192.791 434.198 192.984C437.38 194.041 443.443 195.383 444.749 194.63C445.039 195.644 445.103 196.83 444.487 199.151Z" fill="#6561AB"/>
<path d="M456.528 183.318C455.953 183.644 449.278 183.396 444.767 181.676C444.79 182.471 444.891 183.722 445.006 185.143C445.186 187.382 445.393 190.044 445.342 191.984C445.314 193.368 445.154 194.388 444.767 194.623C444.762 194.628 444.758 194.632 444.748 194.632C444.055 195.032 442.022 194.839 439.788 194.416C438.344 194.14 436.818 193.768 435.517 193.395C435.043 193.257 434.598 193.12 434.198 192.986C431.642 192.131 428.452 191.804 427.26 191.473C426.961 191.39 426.791 191.312 426.781 191.22C426.745 190.769 427.889 189.749 428.427 188.682C428.491 188.549 428.578 188.351 428.675 188.098C429.112 186.981 429.797 184.866 430.128 183.519C430.325 182.724 430.399 182.2 430.225 182.291C429.692 182.576 426.537 188.475 426.169 188.475C426.041 188.475 425.406 188.112 424.652 187.601C423.383 186.741 421.788 185.477 421.751 184.875C421.742 184.792 421.765 184.723 421.825 184.668C422.565 183.969 428.215 174.466 430.265 172.439C431.226 171.482 432.362 170.908 433.286 170.568C434.32 170.182 435.102 170.094 435.102 170.094C436.32 170.052 437.547 170.214 438.743 170.517C442.807 171.533 446.536 174.099 448.66 175.367C451.404 177.004 453.289 176.554 453.983 176.963C454.684 177.378 457.097 182.987 456.528 183.318Z" fill="#F26647"/>
<path d="M445.342 191.984C441.563 192.03 433.163 191.694 428.676 188.099C429.113 186.982 429.798 184.867 430.129 183.52C430.129 183.52 438.997 186.209 445.006 185.143C445.186 187.382 445.393 190.044 445.342 191.984Z" fill="#F69181"/>
<path opacity="0.25" d="M438.745 170.519C438.599 172.091 438.042 173.783 436.331 173.65C433.918 173.462 433.398 171.489 433.288 170.57C434.322 170.184 435.104 170.096 435.104 170.096C436.322 170.054 437.549 170.215 438.745 170.519Z" fill="#010101"/>
<path d="M437.724 167.093C437.724 167.093 437.315 165.415 436.492 164.551C435.826 165.636 433.256 166.192 431.274 166.335C430.336 166.404 429.527 166.381 429.118 166.275C427.725 160.864 432.069 158.491 434.488 158.326C436.901 158.16 439.076 159.958 438.419 162.703C440.588 164.841 437.724 167.093 437.724 167.093Z" fill="#321212"/>
<path d="M437.724 167.093C437.6 167.452 437.407 168.082 437.076 168.67H437.071C436.529 169.649 435.619 170.518 434.042 169.879C433.987 169.856 433.932 169.833 433.881 169.806C432.553 169.203 431.863 168.031 431.514 167.107C431.404 166.817 431.326 166.551 431.275 166.335C433.256 166.192 435.827 165.636 436.493 164.551C436.53 164.593 436.567 164.634 436.603 164.675C437.352 165.567 437.724 167.093 437.724 167.093Z" fill="url(#paint4_linear_2_32)"/>
<path d="M437.517 171.272C437.274 172.789 434.773 172.707 434.501 171.723C434.358 171.213 434.197 170.721 434.073 170.362C433.963 170.027 433.88 169.81 433.88 169.81V169.806C433.931 169.833 433.986 169.856 434.041 169.879C435.618 170.518 436.528 169.65 437.07 168.67H437.075C436.905 169.01 437.36 169.438 437.512 170.242C437.568 170.532 437.582 170.873 437.517 171.272Z" fill="url(#paint5_linear_2_32)"/>
<path d="M424.53 231.329C424.286 233.214 414.535 240.588 414.701 239.278C414.861 237.967 419.827 226.69 419.827 226.69C420.135 227.016 420.347 227.21 420.433 227.232C420.925 227.375 421.55 226.124 421.706 225.669C423.017 227.315 424.75 229.646 424.53 231.329Z" fill="#262166"/>
<path d="M431.25 265.198C428.956 260.278 431.25 249.846 431.25 249.846C431.986 250.83 434.772 249.681 434.854 249.272C434.864 249.226 434.886 248.876 434.923 248.288C434.923 248.288 435.291 253.286 435.728 257.52C436.165 261.754 433.545 270.112 431.25 265.198Z" fill="#262166"/>
<path opacity="0.25" d="M430.51 202.163C429.117 202.816 420.088 202.572 420.088 202.572C420.088 202.572 421.743 225.347 421.752 225.512C421.752 225.535 421.738 225.59 421.706 225.668C421.601 225.981 421.269 226.676 420.911 227.025C419.247 219.232 415.928 204.29 418.575 201.725C421.964 198.447 431.14 197.574 431.273 198.291C431.407 199.013 430.51 202.163 430.51 202.163Z" fill="#010101"/>
<path d="M424.014 191.4C423.881 191.676 423.812 191.906 423.854 192.058C424.051 192.821 423.003 202.379 423.385 203.363C423.766 204.347 423.987 207.459 423.766 209.427C423.545 211.395 419.45 212.595 419.45 210.903C419.45 209.207 419.942 205.221 420.107 203.69C420.272 202.164 418.742 191.102 419.151 189.571C419.418 188.573 420.443 186.882 421.123 185.829C421.486 185.264 421.753 184.877 421.753 184.877C421.814 185.837 425.836 188.477 426.171 188.477C426.17 188.476 424.552 190.288 424.014 191.4Z" fill="url(#paint6_linear_2_32)"/>
<path opacity="0.25" d="M444.487 199.151C442.68 199.018 440.648 198.227 439.232 196.806C437.586 195.16 434.841 193.634 432.386 192.48C433.002 192.623 433.618 192.793 434.198 192.986C437.38 194.043 443.443 195.385 444.749 194.632C445.039 195.644 445.103 196.83 444.487 199.151Z" fill="#010101"/>
<path opacity="0.25" d="M442.602 204.682C441.278 208.089 439.278 212.732 436.331 219.205C436.258 222.493 435.21 243.461 434.925 248.288C434.888 248.877 434.865 249.226 434.856 249.272C434.815 249.483 434.056 249.888 433.229 250.095C433.417 243.024 433.169 227.632 434.365 223.053C435.793 217.573 442.202 205.436 442.602 204.682Z" fill="#010101"/>
<path opacity="0.25" d="M435.517 193.395C435.043 193.257 434.598 193.12 434.198 192.986C431.642 192.131 428.452 191.804 427.26 191.473C426.961 191.39 426.791 191.312 426.781 191.22C426.745 190.769 427.889 189.749 428.427 188.682C428.96 187.615 430.758 182.002 430.225 182.291C429.692 182.576 426.537 188.475 426.169 188.475C426.041 188.475 425.406 188.112 424.652 187.601C424.73 187.468 424.817 187.334 424.914 187.192C426.878 184.296 430.101 180.692 430.647 177.579C431.084 175.285 431.741 176.595 431.63 179.547C431.532 182.196 431.389 190.306 435.517 193.395Z" fill="#010101"/>
<path opacity="0.25" d="M444.767 194.623C444.762 194.628 444.758 194.632 444.748 194.632C444.055 195.032 442.022 194.839 439.788 194.416C443.783 190.412 441.603 179.566 442.229 180.123C442.964 180.776 444.766 181.677 444.766 181.677C444.85 184.628 446.041 193.846 444.767 194.623Z" fill="#010101"/>
<path opacity="0.25" d="M426.17 188.476C426.17 188.476 424.552 190.288 424.014 191.4C424 191.156 423.983 190.931 423.959 190.729C423.835 189.557 422.01 187.009 421.122 185.828C421.485 185.263 421.752 184.876 421.752 184.876C421.813 185.837 425.835 188.476 426.17 188.476Z" fill="#010101"/>
<path opacity="0.25" d="M436.602 164.675C435.619 166.85 432.727 167.102 431.513 167.107C431.403 166.817 431.325 166.551 431.274 166.335C433.255 166.192 435.826 165.636 436.492 164.551C436.529 164.593 436.566 164.634 436.602 164.675Z" fill="#010101"/>
<path opacity="0.25" d="M437.512 170.243C437.328 170.386 437.104 170.492 436.823 170.556C435.504 170.855 434.575 170.598 434.074 170.363C433.964 170.028 433.881 169.811 433.881 169.811V169.807C433.932 169.834 433.987 169.857 434.042 169.88C435.619 170.519 436.529 169.651 437.071 168.671H437.076C436.906 169.011 437.361 169.438 437.512 170.243Z" fill="#010101"/>
<path d="M450.586 0.621948V204.682" stroke="#0A2533" stroke-width="0.9195" stroke-miterlimit="10"/>
<path d="M459.189 180.394C459.18 180.449 459.167 180.504 459.157 180.555C458.615 183.024 456.638 183.286 456.265 183.125C455.893 182.964 454.909 181.833 454.049 177.848C454.03 177.769 454.017 177.691 453.998 177.609C453.998 177.609 452.141 172.846 451.268 170.556C449.112 169.278 448.703 169.798 448.399 168.322C448.1 166.846 449.057 164.938 449.604 164.662C450.151 164.391 452.606 166.685 452.937 167.531C453.263 168.376 459.681 177.773 459.189 180.394Z" fill="url(#paint7_linear_2_32)"/>
<path opacity="0.25" d="M459.157 180.555C458.615 183.024 456.638 183.286 456.265 183.125C455.893 182.964 454.909 181.833 454.049 177.848C454.596 178.955 455.438 180.39 456.362 180.983C457.377 181.63 458.518 181.424 459.157 180.555Z" fill="#010101"/>
<path d="M386.771 309.622L381.502 282.714C377.604 262.812 370.087 248.294 358.952 239.153C347.812 230.018 334.053 227.053 317.672 230.262C301.291 233.471 289.674 241.369 282.828 253.951C275.978 266.539 274.507 282.818 278.419 302.79L283.706 329.8C287.591 349.633 295.099 364.119 306.238 373.254C310.941 377.111 316.118 379.869 321.768 381.521C329.496 383.788 338.112 383.985 347.614 382.127C352.538 381.166 357.035 379.773 361.094 377.952C370.49 373.741 377.579 367.245 382.361 358.455C389.212 345.868 390.679 329.588 386.771 309.622ZM353.881 345.739C352.079 351.257 348.268 354.585 342.447 355.725C336.42 356.906 331.523 355.214 327.745 350.645C325.17 347.532 322.968 342.912 321.142 336.784C321.142 336.779 321.142 336.774 321.142 336.774C321.138 336.765 321.138 336.755 321.133 336.742C320.287 333.901 319.524 330.733 318.843 327.244L311.447 289.468C309.714 279.546 309.709 271.887 311.428 266.489C313.148 261.093 316.954 257.814 322.843 256.665C327.335 255.782 331.21 256.541 334.465 258.932H334.47C335.578 259.75 336.616 260.752 337.582 261.948C341.384 266.651 344.326 274.32 346.404 284.944L353.562 321.498C355.578 332.14 355.684 340.217 353.881 345.739Z" fill="#F26647"/>
<path opacity="0.25" d="M356.525 350.787C358.043 353.123 360.06 369.002 361.095 377.953C357.035 379.774 352.538 381.167 347.615 382.128C338.113 383.985 329.497 383.788 321.769 381.522C322.085 380.809 322.375 380.064 322.623 379.301C327.446 364.566 321.419 337.98 321.143 336.784C322.968 342.912 325.17 347.532 327.746 350.645C331.524 355.214 336.421 356.906 342.448 355.725C348.268 354.584 352.08 351.256 353.882 345.739C355.685 340.218 355.578 332.14 353.565 321.497L346.407 284.943C344.329 274.319 341.386 266.65 337.585 261.947C336.619 260.752 335.581 259.75 334.473 258.931C346.1 261.211 355.543 297.209 359.478 314.574C363.408 331.942 363.739 339.974 356.525 350.787Z" fill="#010101"/>
<path d="M323.708 343.847C323.708 343.847 324.462 345.818 328.422 346.91C332.383 348.002 336.097 341.876 338.719 343.847C341.341 345.818 345.537 353.987 349.229 352.743C352.921 351.499 354.013 371.163 352.266 373.348C350.518 375.533 349.261 357.873 344.646 358.401C340.03 358.927 343.526 372.255 340.904 374.659C338.282 377.063 339.375 368.76 336.535 367.23C333.694 365.701 339.594 434.088 335.223 435.18C330.853 436.273 328.013 432.121 329.761 417.483C331.509 402.845 329.323 352.373 326.701 349.751C324.081 347.129 324.245 346.637 323.708 343.847Z" fill="#6561AB"/>
<path d="M322.624 0.621948V239.195" stroke="#0A2533" stroke-width="0.9195" stroke-miterlimit="10"/>
<path d="M379.344 146.938C379.344 146.938 375.863 137.393 376.149 136.655C376.436 135.918 380.26 134.525 380.541 134.934C380.82 135.344 383.237 142.759 382.827 143.291C382.417 143.824 379.344 146.938 379.344 146.938Z" fill="#262166"/>
<path d="M321.417 134.421C321.417 134.421 323.542 135.302 324.487 137.597C325.431 139.891 325.063 131.616 325.063 131.616L324.039 130.674L321.417 134.421Z" fill="url(#paint8_linear_2_32)"/>
<path d="M320.311 134.421C320.311 134.421 322.974 136.408 323.425 136.531C323.875 136.654 324.745 131.451 324.352 130.632C323.957 129.812 322.514 128.993 321.577 129.526C320.639 130.059 319.875 134.099 320.311 134.421Z" fill="url(#paint9_linear_2_32)"/>
<path d="M327.399 135.016C327.399 135.016 325.278 130.1 324.352 129.24C323.425 128.38 321.705 129.486 321.581 129.936C321.457 130.386 323.639 130.714 324.352 131.452C325.064 132.19 323.138 137.638 324.982 139.564C326.825 141.489 327.399 135.016 327.399 135.016Z" fill="url(#paint10_linear_2_32)"/>
<path d="M376.723 148.043C376.723 148.043 378.607 147.019 379.017 146.486C379.426 145.953 378.689 143.946 379.877 142.103C381.065 140.259 383.605 140.792 384.219 143.004C384.834 145.216 383.237 148.002 382.499 148.862C381.761 149.722 376.723 153.327 376.723 153.327" fill="url(#paint11_linear_2_32)"/>
<path d="M378.073 152.317C378.018 152.644 377.682 153.204 377.03 153.968C374.639 156.763 368.051 162.234 356.176 168.487C355.942 169.443 355.758 170.418 355.62 171.392C355.179 174.504 355.187 177.649 355.335 180.476C355.371 181.203 355.417 181.911 355.468 182.591C355.685 185.57 355.979 188.03 355.901 189.455C355.864 190.08 355.754 190.503 355.543 190.691C355.276 190.925 354.995 191.137 354.701 191.326C348.77 195.133 337.975 189.446 336.228 187.735C336.09 187.602 336.007 187.491 335.99 187.413C335.686 186.264 336.863 185.036 337.52 183.068C337.63 182.733 337.741 181.983 337.851 180.958C338.164 177.928 338.435 172.508 338.532 168.43C338.587 165.827 338.573 163.773 338.454 163.23C338.449 163.221 338.449 163.211 338.449 163.211C338.123 161.873 328.178 146.849 325.195 141.525C324.648 140.555 324.336 139.907 324.353 139.723C324.463 138.523 326.757 134.262 327.249 134.317C327.332 134.326 327.636 134.708 328.095 135.342C330.399 138.542 336.596 148.215 337.736 149.447C338.803 150.601 344.232 156.316 346.559 158.766C347.216 159.451 347.625 159.883 347.625 159.883C348.885 159.86 350.148 159.745 351.413 159.548C362.589 157.824 373.572 149.999 376.446 147.824C376.919 147.466 377.173 147.263 377.173 147.263C377.173 147.263 378.321 150.787 378.073 152.317Z" fill="#F47920"/>
<path d="M350.183 164.826C346.371 165.442 346.36 160.482 346.558 158.767C347.215 159.452 347.624 159.884 347.624 159.884C348.884 159.861 350.147 159.746 351.412 159.549C351.886 161.503 351.506 164.615 350.183 164.826Z" fill="#C54527"/>
<path d="M354.042 154.193C353.302 154.639 352.336 154.791 351.104 154.473C350.157 154.234 349.048 153.715 347.756 152.836C347.756 152.836 346.735 154.064 346.653 156.316C343.949 153.981 343.292 151.645 345.586 150.785C344.644 146.689 346.653 145.829 350.009 145.627C353.37 145.42 354.147 148.863 356.155 148.781C356.277 150.617 355.757 153.177 354.042 154.193Z" fill="#262166"/>
<path d="M354.042 154.193C354.005 154.524 353.95 154.905 353.872 155.315C353.421 157.711 352.244 161.053 350.47 160.869C350.378 160.865 350.282 160.846 350.18 160.814C348.585 160.313 347.624 158.764 347.123 157.624C346.792 156.884 346.654 156.318 346.654 156.318C346.681 155.606 346.8 154.994 346.953 154.493C347.279 153.412 347.757 152.838 347.757 152.838C349.049 153.716 350.157 154.236 351.105 154.475C352.336 154.791 353.302 154.639 354.042 154.193Z" fill="url(#paint12_linear_2_32)"/>
<path d="M350.47 162.28C350.451 163.149 350.332 163.829 349.753 163.87C348.58 163.953 347.022 162.422 347.105 160.758C347.132 160.193 347.142 159.591 347.142 159.039C347.142 158.482 347.132 157.977 347.123 157.623C347.624 158.763 348.585 160.312 350.18 160.813C350.282 160.845 350.378 160.864 350.47 160.868C350.465 161.352 350.484 161.839 350.47 162.28Z" fill="url(#paint13_linear_2_32)"/>
<path d="M378.073 152.317C378.018 152.644 377.682 153.204 377.03 153.968C377.061 152.014 376.634 149.049 376.446 147.825C376.919 147.467 377.173 147.264 377.173 147.264C377.173 147.264 378.321 150.787 378.073 152.317Z" fill="#C54527"/>
<path d="M328.094 135.344C326.348 136.838 325.496 140.094 325.194 141.528C324.647 140.558 324.335 139.91 324.352 139.726C324.462 138.526 326.756 134.265 327.248 134.32C327.332 134.328 327.635 134.709 328.094 135.344Z" fill="#C54527"/>
<path d="M355.467 182.591C351.56 183.156 344.208 183.658 337.85 180.959C338.163 177.929 338.434 172.509 338.531 168.431C341.68 169.764 348.479 172.136 355.62 171.391C355.063 175.305 355.219 179.272 355.467 182.591Z" fill="#FCAF17"/>
<path opacity="0.25" d="M354.7 191.327C348.309 195.428 336.273 188.509 335.989 187.414C335.685 186.265 336.862 185.037 337.519 183.069C337.629 182.734 337.74 181.984 337.85 180.959C338.163 177.929 338.434 172.509 338.531 168.431C338.586 165.828 338.572 163.774 338.453 163.231C338.591 163.654 340.752 170.504 341.859 177.17C343.008 184.052 342.76 187.331 346.121 189.542C348.088 190.834 351.679 191.515 354.7 191.327Z" fill="#010101"/>
<path d="M369.305 210.245C369.305 213.086 359.034 228.828 356.907 232.059C356.663 232.432 356.525 232.639 356.525 232.639C356.525 232.639 355.201 232.487 354.111 232.119C353.353 231.856 352.705 231.498 352.705 231.002C352.705 230.9 352.724 230.744 352.756 230.537C353.119 228.344 355.376 220.409 358.273 209.918C356.747 208.061 346.04 200.958 346.04 200.958C346.04 200.958 346.035 200.967 346.03 200.985C345.566 202.056 330.703 236.426 329.015 239.631C328.955 239.746 328.913 239.819 328.886 239.852C328.123 240.836 324.955 240.942 324.735 238.868C324.735 238.864 324.735 238.864 324.735 238.859C323.825 230.171 331.318 203.964 334.808 192.375C335.433 190.297 335.929 188.688 336.228 187.736C337.975 189.446 348.77 195.133 354.701 191.327C354.995 191.138 355.276 190.927 355.543 190.692C355.754 190.504 355.864 190.081 355.901 189.456C356.011 189.575 356.127 189.704 356.241 189.842C360.377 194.572 369.305 207.509 369.305 210.245Z" fill="#9DC2E7"/>
<path d="M330.062 244.44C329.653 246.486 318.835 252.55 319.82 248.881C320.62 245.906 323.626 240.716 324.734 238.859C324.734 238.864 324.734 238.864 324.734 238.868C324.955 240.942 328.123 240.837 328.885 239.852C328.912 239.82 328.954 239.747 329.014 239.631C329.566 241.213 330.329 243.116 330.062 244.44Z" fill="#262166"/>
<path d="M360.46 242.637C359.637 243.047 348.989 238.95 349.233 237.557C349.481 236.164 352.754 230.537 352.754 230.537C352.722 230.744 352.703 230.9 352.703 231.002C352.703 232.201 356.523 232.639 356.523 232.639C356.523 232.639 356.661 232.432 356.905 232.059C357.38 236.312 361.228 242.252 360.46 242.637Z" fill="#262166"/>
<path opacity="0.25" d="M344.646 199.785C344.646 199.785 332.847 222.956 328.422 238.859" stroke="#010101" stroke-width="0.4597" stroke-miterlimit="10"/>
<path opacity="0.25" d="M347.431 199.785C347.431 199.785 360.54 208.388 361.033 209.781C361.524 211.174 354.232 230.538 354.232 230.538" stroke="#010101" stroke-width="0.4597" stroke-miterlimit="10"/>
<path opacity="0.25" d="M356.24 189.841C354.797 195.606 346.438 194.039 342.163 192.931C339.676 192.287 336.825 192.264 334.808 192.374C335.433 190.296 335.929 188.687 336.228 187.735C337.975 189.445 348.77 195.132 354.701 191.326C354.995 191.137 355.276 190.926 355.543 190.691C355.754 190.503 355.864 190.08 355.901 189.455C356.01 189.575 356.125 189.704 356.24 189.841Z" fill="#010101"/>
<path opacity="0.25" d="M354.111 232.12C353.353 231.857 352.705 231.499 352.705 231.003C352.705 230.901 352.724 230.745 352.756 230.538C353.119 228.345 355.376 220.41 358.273 209.919C356.747 208.062 346.04 200.959 346.04 200.959C346.04 200.959 346.913 198.012 347.897 197.792C348.88 197.576 360.241 207.35 361.496 209.373C362.603 211.15 354.866 225.66 354.111 232.12Z" fill="#010101"/>
<path opacity="0.25" d="M354.042 154.193C354.005 154.524 353.95 154.905 353.872 155.315C351.008 156.773 348.198 153.49 347.863 153.531C347.67 153.554 347.274 154.051 346.953 154.492C347.279 153.411 347.757 152.837 347.757 152.837C349.049 153.715 350.157 154.235 351.105 154.474C352.336 154.791 353.302 154.639 354.042 154.193Z" fill="#010101"/>
<path opacity="0.25" d="M350.47 162.28C348.58 161.82 347.536 159.926 347.142 159.039C347.142 158.482 347.132 157.977 347.123 157.623C347.624 158.763 348.585 160.312 350.18 160.813C350.282 160.845 350.378 160.864 350.47 160.868C350.465 161.352 350.484 161.839 350.47 162.28Z" fill="#010101"/>
<path opacity="0.25" d="M355.62 171.392C355.179 174.504 355.187 177.649 355.335 180.476C354.59 177.336 353.938 173.961 354.7 172.008C356.014 168.643 356.157 168.487 356.176 168.487C355.941 169.443 355.757 170.417 355.62 171.392Z" fill="#010101"/>
<path d="M263.634 202.742L228.262 196.664L228.207 196.981L150.092 284.929L148.479 306.914L159.683 308.84L179.075 312.173L205.105 316.647L207.579 317.07L205.717 327.915L204.853 332.932L202.007 349.505L225.03 353.463L237.38 355.583L242.951 323.148L258.49 325.814L263.179 298.519L247.64 295.853L263.634 202.742ZM219.477 247.81L212.263 289.775L203.634 288.29L184.761 285.05L195.211 272.577L197.602 269.722L217.527 245.94L220.345 242.75L219.477 247.81Z" fill="#6561AB"/>
<path opacity="0.25" d="M205.105 316.647L179.075 312.173C182.141 302.045 185.967 288.087 184.762 285.049L203.635 288.289C204.844 290.304 205.8 293.075 206.058 296.878C206.517 303.609 205.514 310.482 205.105 316.647Z" fill="#010101"/>
<path d="M185.888 285.245C185.888 285.245 188.726 281.307 195.117 282.537C201.508 283.767 202 291.633 199.214 300.318C196.428 309.003 195.773 339.318 197.083 349.15C198.395 358.982 197.575 363.571 194.462 363.898C191.349 364.226 189.873 352.099 191.676 343.579C193.479 335.058 193.315 327.192 190.365 328.503C187.415 329.815 189.873 333.092 188.398 336.041C186.923 338.99 182.499 337.188 182.663 331.616C182.827 326.044 191.736 289.835 185.888 285.245Z" fill="#9DC2E7"/>
<path opacity="0.25" d="M247.64 295.853L263.179 298.519L258.49 325.814L242.951 323.148L237.379 355.583L225.03 353.462L246.735 218.033L263.634 202.742L247.64 295.853Z" fill="#010101"/>
<path d="M237.067 0.621948V211.708" stroke="#0A2533" stroke-width="0.9195" stroke-miterlimit="10"/>
<path d="M296.55 169.623C300.08 169.623 302.941 166.762 302.941 163.232C302.941 159.702 300.08 156.841 296.55 156.841C293.02 156.841 290.159 159.702 290.159 163.232C290.159 166.762 293.02 169.623 296.55 169.623Z" fill="#F47920"/>
<path d="M518.91 250.839C522.44 250.839 525.301 247.978 525.301 244.448C525.301 240.918 522.44 238.057 518.91 238.057C515.38 238.057 512.519 240.918 512.519 244.448C512.519 247.978 515.38 250.839 518.91 250.839Z" fill="#6561AB"/>
<path d="M184.762 204.178C188.292 204.178 191.153 201.317 191.153 197.787C191.153 194.257 188.292 191.396 184.762 191.396C181.232 191.396 178.371 194.257 178.371 197.787C178.371 201.317 181.232 204.178 184.762 204.178Z" fill="#9DC2E7"/>
<path d="M290.16 399.621C293.69 399.621 296.551 396.76 296.551 393.23C296.551 389.7 293.69 386.839 290.16 386.839C286.63 386.839 283.769 389.7 283.769 393.23C283.769 396.76 286.63 399.621 290.16 399.621Z" fill="#F26647"/>
<path d="M482.376 184.935C483.737 184.935 484.841 183.831 484.841 182.47C484.841 181.109 483.737 180.005 482.376 180.005C481.015 180.005 479.911 181.109 479.911 182.47C479.911 183.831 481.015 184.935 482.376 184.935Z" fill="#F47920"/>
<path d="M294.085 223.318C295.446 223.318 296.55 222.214 296.55 220.853C296.55 219.492 295.446 218.388 294.085 218.388C292.724 218.388 291.62 219.492 291.62 220.853C291.62 222.214 292.724 223.318 294.085 223.318Z" fill="#9DC2E7"/>
<path d="M220.345 189.942C221.706 189.942 222.81 188.838 222.81 187.477C222.81 186.116 221.706 185.012 220.345 185.012C218.984 185.012 217.88 186.116 217.88 187.477C217.88 188.838 218.984 189.942 220.345 189.942Z" fill="#6561AB"/>
<path d="M553.823 52.3859C553.823 52.3859 543.972 42.5539 525.301 46.4869C506.629 50.4199 493.506 79.9159 479.912 86.4699C466.317 93.0249 439.516 112.38 437.513 128.921C463.696 107.118 473.528 116.622 490.57 114C507.612 111.378 508.923 91.3859 533.504 92.0419C558.084 92.6969 584.303 123.239 608.883 106.166C633.463 89.0929 662.304 68.7729 639.034 52.0589C615.764 35.3449 568.571 60.9069 553.823 52.3859Z" fill="url(#paint14_linear_2_32)"/>
<path d="M154.974 118.839C154.974 118.839 152.41 132.518 166.187 145.72C179.963 158.922 211.723 153.126 224.802 160.656C237.881 168.186 268.979 179.406 283.769 171.731C250.998 162.404 253.302 148.925 241.526 136.329C229.751 123.734 212.502 133.925 199.182 113.257C185.862 92.5879 196.297 53.7129 168.337 43.0419C140.376 32.3709 107.331 20.0119 106.65 48.6539C105.969 77.2959 153.694 101.854 154.974 118.839Z" fill="url(#paint15_linear_2_32)"/>
<path d="M630.84 197.262C630.84 197.262 590.857 241.13 582.335 292.564C573.814 343.999 532.828 340.721 518.909 364.973C504.989 389.225 471.817 391.192 456.613 401.024C441.409 410.856 406.77 393.814 400.82 401.024C394.871 408.234 431.89 419.378 479.911 420.033C527.932 420.688 537.107 383.327 579.713 378.083C622.319 372.839 664.924 354.486 680 285.005C695.077 215.526 669.513 178.343 630.84 197.262Z" fill="url(#paint16_linear_2_32)"/>
<path d="M53.78 214.927C53.78 214.927 93.763 258.796 102.285 310.229C110.806 361.663 151.792 358.385 165.711 382.638C179.63 406.89 212.803 408.857 228.007 418.689C243.211 428.521 277.85 411.479 283.8 418.689C289.749 425.899 252.73 437.042 204.709 437.698C156.688 438.353 147.513 400.991 104.907 395.748C62.302 390.504 19.695 372.151 4.62001 302.671C-10.457 233.191 15.107 196.007 53.78 214.927Z" fill="url(#paint17_linear_2_32)"/>
<defs>
<linearGradient id="paint0_linear_2_32" x1="443.622" y1="269.229" x2="451.487" y2="395.077" gradientUnits="userSpaceOnUse">
<stop stop-color="#FCAF17"/>
<stop offset="1" stop-color="#F47920"/>
</linearGradient>
<linearGradient id="paint1_linear_2_32" x1="145.641" y1="235.175" x2="146.542" y2="226.653" gradientUnits="userSpaceOnUse">
<stop stop-color="#FBC4AF"/>
<stop offset="1" stop-color="#EA8B69"/>
</linearGradient>
<linearGradient id="paint2_linear_2_32" x1="156.998" y1="232.325" x2="149.132" y2="232.898" gradientUnits="userSpaceOnUse">
<stop stop-color="#FBC4AF"/>
<stop offset="1" stop-color="#EA8B69"/>
</linearGradient>
<linearGradient id="paint3_linear_2_32" x1="146.701" y1="264.43" x2="153.911" y2="238.539" gradientUnits="userSpaceOnUse">
<stop stop-color="#FBC4AF"/>
<stop offset="1" stop-color="#EA8B69"/>
</linearGradient>
<linearGradient id="paint4_linear_2_32" x1="434.377" y1="169.502" x2="434.705" y2="162.006" gradientUnits="userSpaceOnUse">
<stop stop-color="#FBC4AF"/>
<stop offset="1" stop-color="#EA8B69"/>
</linearGradient>
<linearGradient id="paint5_linear_2_32" x1="435.833" y1="172.691" x2="435.587" y2="167.366" gradientUnits="userSpaceOnUse">
<stop stop-color="#FBC4AF"/>
<stop offset="1" stop-color="#EA8B69"/>
</linearGradient>
<linearGradient id="paint6_linear_2_32" x1="419.396" y1="212.892" x2="425.295" y2="174.547" gradientUnits="userSpaceOnUse">
<stop stop-color="#FBC4AF"/>
<stop offset="1" stop-color="#EA8B69"/>
</linearGradient>
<linearGradient id="paint7_linear_2_32" x1="452.4" y1="166.642" x2="456.988" y2="190.839" gradientUnits="userSpaceOnUse">
<stop stop-color="#FBC4AF"/>
<stop offset="1" stop-color="#EA8B69"/>
</linearGradient>
<linearGradient id="paint8_linear_2_32" x1="322.266" y1="130.947" x2="325.135" y2="137.043" gradientUnits="userSpaceOnUse">
<stop stop-color="#FBC4AF"/>
<stop offset="1" stop-color="#EA8B69"/>
</linearGradient>
<linearGradient id="paint9_linear_2_32" x1="317.916" y1="130.796" x2="325.044" y2="133.787" gradientUnits="userSpaceOnUse">
<stop stop-color="#FBC4AF"/>
<stop offset="1" stop-color="#EA8B69"/>
</linearGradient>
<linearGradient id="paint10_linear_2_32" x1="322.007" y1="128.502" x2="326.596" y2="138.252" gradientUnits="userSpaceOnUse">
<stop stop-color="#FBC4AF"/>
<stop offset="1" stop-color="#EA8B69"/>
</linearGradient>
<linearGradient id="paint11_linear_2_32" x1="387.341" y1="138.151" x2="374.315" y2="153.636" gradientUnits="userSpaceOnUse">
<stop stop-color="#FBC4AF"/>
<stop offset="1" stop-color="#EA8B69"/>
</linearGradient>
<linearGradient id="paint12_linear_2_32" x1="350.907" y1="161.755" x2="349.514" y2="145.531" gradientUnits="userSpaceOnUse">
<stop stop-color="#FBC4AF"/>
<stop offset="1" stop-color="#EA8B69"/>
</linearGradient>
<linearGradient id="paint13_linear_2_32" x1="348.524" y1="161.881" x2="349.18" y2="157.702" gradientUnits="userSpaceOnUse">
<stop stop-color="#FBC4AF"/>
<stop offset="1" stop-color="#EA8B69"/>
</linearGradient>
<linearGradient id="paint14_linear_2_32" x1="589.579" y1="72.2084" x2="368.685" y2="123.335" gradientUnits="userSpaceOnUse">
<stop stop-color="white" stop-opacity="0"/>
<stop offset="1" stop-color="#9DC2E7"/>
</linearGradient>
<linearGradient id="paint15_linear_2_32" x1="151.18" y1="78.1314" x2="317.968" y2="231.72" gradientUnits="userSpaceOnUse">
<stop stop-color="white" stop-opacity="0"/>
<stop offset="1" stop-color="#9DC2E7"/>
</linearGradient>
<linearGradient id="paint16_linear_2_32" x1="612.555" y1="295.908" x2="295.48" y2="369.296" gradientUnits="userSpaceOnUse">
<stop stop-color="white" stop-opacity="0"/>
<stop offset="1" stop-color="#9DC2E7"/>
</linearGradient>
<linearGradient id="paint17_linear_2_32" x1="72.0649" y1="313.571" x2="389.141" y2="386.959" gradientUnits="userSpaceOnUse">
<stop stop-color="white" stop-opacity="0"/>
<stop offset="1" stop-color="#9DC2E7"/>
</linearGradient>
</defs>
</svg>
