<svg width="24" height="24" viewBox="0 0 24 24" fill="none" xmlns="http://www.w3.org/2000/svg">
<path d="M12 9.31199V12.4499C12 12.6536 12.0809 12.8489 12.225 12.9929L13.92 14.688M2.40002 7.00799V6.23999C2.40002 4.11922 4.11925 2.39999 6.24002 2.39999H7.00802M16.992 2.39999L17.76 2.39999C19.8808 2.39999 21.6 4.11922 21.6 6.23999V7.00799M5.85602 18.912L3.16802 21.6M20.832 21.6L18.144 18.912M20.448 12.768C20.448 17.4337 16.6657 21.216 12 21.216C7.33432 21.216 3.55202 17.4337 3.55202 12.768C3.55202 8.10229 7.33432 4.31999 12 4.31999C16.6657 4.31999 20.448 8.10229 20.448 12.768Z" stroke="black" stroke-width="2" stroke-linecap="round"/>
</svg>
