<svg width="32" height="35" viewBox="0 0 32 35" fill="none" xmlns="http://www.w3.org/2000/svg">
<path d="M1.78115 27.3739H11.0062V29.4705C11.0062 32.018 8.94109 34.083 6.39367 34.083C3.84625 34.083 1.78115 32.018 1.78115 29.4705V27.3739ZM8.58836 20.6648L8.66241 20.4427C9.94907 16.9113 10.1676 16.2559 10.1676 15.6329C10.1676 14.3758 9.82785 12.8779 9.28252 11.8201C8.8767 11.033 8.59091 10.8034 8.49027 10.8034C6.34479 10.8034 4.29707 13.0909 4.29707 15.6329C4.29707 17.2411 4.42315 18.6071 4.67738 20.2595C4.68754 20.3256 4.71151 20.4757 4.74175 20.6648H8.58836ZM8.49027 7.44884C11.8448 7.44884 13.5221 12.2784 13.5221 15.6329C13.5221 17.3102 12.6835 18.9875 11.8448 21.5034L11.0062 24.0193H1.78115C1.78115 22.342 0.942505 19.8261 0.942505 15.6329C0.942505 11.4397 4.29343 7.44884 8.49027 7.44884ZM28.7082 20.8296L28.3441 22.8945C27.9018 25.4033 25.5093 27.0784 23.0006 26.6359C20.4919 26.1936 18.8168 23.8013 19.2593 21.2926L19.6232 19.2278L28.7082 20.8296ZM26.9479 13.7067C27.2247 12.8685 27.4526 12.207 27.4555 12.1976C27.7939 11.0937 28.0608 10.0121 28.2693 8.83023C28.7107 6.32684 27.0913 3.71848 24.9785 3.34592C24.8793 3.32844 24.558 3.50488 24.0216 4.2096C23.3008 5.15661 22.7062 6.57281 22.488 7.81083C22.3902 8.36467 22.4057 8.48884 22.9414 11.6065C23.0149 12.0346 23.0776 12.4212 23.135 12.8088L23.1693 13.0404L26.9479 13.7067ZM25.561 0.0423135C29.694 0.771093 32.301 5.28323 31.5729 9.41273C30.8447 13.5422 29.5819 15.8743 29.2907 17.5261L20.2058 15.9243L19.8168 13.3009C19.4277 10.6775 18.8931 8.88011 19.1843 7.22831C19.7668 3.92472 22.2572 -0.540206 25.561 0.0423135Z" fill="white"/>
</svg>
