<svg width="57" height="42" viewBox="0 0 57 42" fill="none" xmlns="http://www.w3.org/2000/svg">
<path d="M52.9509 3.83232H52.014C52.0127 2.83857 51.6179 1.88618 50.9152 1.18358C50.2125 0.480974 49.2602 0.0860932 48.2665 0.0848083H47.3296C46.3359 0.0860631 45.3835 0.480888 44.6809 1.18358C43.9783 1.88627 43.5834 2.83859 43.5821 3.83232V10.3905H39.4377C39.1114 9.65769 38.6028 9.02113 37.9608 8.54059V5.23764C37.9596 4.3681 37.6141 3.53498 36.9993 2.92007C36.3844 2.30524 35.5513 1.95976 34.6817 1.95851C34.13 1.96227 33.5884 2.10699 33.1087 2.37885C32.8327 1.48673 32.1869 0.756502 31.3357 0.372543C30.4846 -0.0109886 29.51 -0.0109886 28.6589 0.372543C27.8078 0.756491 27.1621 1.48673 26.8859 2.37885C26.4062 2.10699 25.8646 1.96228 25.3129 1.95851C24.6178 1.96102 23.9419 2.18479 23.3823 2.59717C22.8231 3.00957 22.4095 3.58926 22.2016 4.25261C21.7219 3.98074 21.1803 3.83604 20.6286 3.83227C19.7591 3.83352 18.926 4.179 18.3111 4.79382C17.6962 5.40865 17.3508 6.24176 17.3495 7.11139V10.3905H13.602V3.83232C13.6008 2.83857 13.2059 1.88618 12.5032 1.18358C11.8005 0.480974 10.8482 0.0860932 9.8545 0.0848083H8.91762C7.92386 0.0860631 6.97148 0.480888 6.26888 1.18358C5.56627 1.88627 5.17139 2.83859 5.17011 3.83232H4.23323C3.23947 3.83358 2.28709 4.2284 1.58449 4.93109C0.881883 5.63378 0.487003 6.5861 0.485718 7.57983V20.6961C0.486554 21.6899 0.881798 22.6423 1.58449 23.3449C2.28718 24.0475 3.2395 24.4428 4.23323 24.4436H5.17011C5.17094 25.4374 5.56619 26.3898 6.26888 27.0924C6.97157 27.795 7.92389 28.1903 8.91762 28.1911H9.8545C10.8483 28.1903 11.8006 27.7951 12.5032 27.0924C13.2058 26.3897 13.6012 25.4374 13.602 24.4436V17.8855H17.3495V19.7592C17.3495 24.5452 19.2847 26.8799 20.1602 27.6926V40.371C20.1602 40.8884 20.5797 41.3079 21.097 41.3079C21.6144 41.3079 22.0339 40.8884 22.0339 40.371V27.2547C22.0306 26.9464 21.8787 26.6583 21.6257 26.4818C21.5278 26.4119 19.2232 24.7385 19.2232 19.7597V17.8859H30.1306C29.0528 19.2013 28.5041 20.8719 28.5923 22.5703C28.5923 23.0877 29.0118 23.5072 29.5292 23.5072C30.0466 23.5072 30.4661 23.0877 30.4661 22.5703C30.4661 18.0654 33.8359 17.891 34.2136 17.8859C34.462 17.8859 34.7004 17.7872 34.8761 17.6116C35.0518 17.4359 35.1505 17.1975 35.1505 16.9491V13.2015C35.1505 12.9531 35.0518 12.7147 34.8761 12.539C34.7004 12.3634 34.462 12.2647 34.2136 12.2647H31.403C30.6576 12.2638 29.9432 11.9673 29.4162 11.4407C28.8897 10.9137 28.5931 10.1993 28.5923 9.45401H35.1504C35.8958 9.45484 36.6101 9.75138 37.1371 10.278C37.6637 10.805 37.9603 11.5193 37.9611 12.2647V19.7597C37.9611 24.7385 35.6566 26.412 35.5675 26.4751C35.3069 26.6491 35.1505 26.9415 35.1505 27.2547V40.371C35.1505 40.8884 35.57 41.3079 36.0874 41.3079C36.6048 41.3079 37.0243 40.8884 37.0243 40.371V27.6927C37.8997 26.8804 39.8349 24.5453 39.8349 19.7593V17.8855H43.5824V24.4437C43.5833 25.4374 43.9785 26.3898 44.6812 27.0924C45.3839 27.795 46.3362 28.1903 47.3299 28.1912H48.2668C49.2606 28.1904 50.213 27.7951 50.9156 27.0924C51.6182 26.3897 52.0135 25.4374 52.0143 24.4437H52.9512C53.945 24.4428 54.8973 24.0476 55.5999 23.3449C56.3025 22.6422 56.6979 21.6899 56.6987 20.6962V7.57987C56.6975 6.58612 56.3026 5.63374 55.5999 4.93113C54.8973 4.22853 53.9449 3.83365 52.9512 3.83236L52.9509 3.83232ZM5.17011 22.5699H4.23323C3.73635 22.569 3.26039 22.3716 2.90907 22.0203C2.55776 21.669 2.36033 21.193 2.35949 20.6961V7.57985C2.35991 7.08298 2.55775 6.60701 2.90907 6.2557C3.2604 5.90438 3.73637 5.70654 4.23323 5.70612H5.17011V22.5699ZM11.7283 24.4436C11.7274 24.9405 11.53 25.4165 11.1787 25.7678C10.8274 26.1191 10.3514 26.3165 9.85452 26.3174H8.91764C8.42076 26.3165 7.9448 26.1191 7.59348 25.7678C7.24217 25.4165 7.04474 24.9405 7.04391 24.4436V3.83232C7.04432 3.33544 7.24216 2.85948 7.59348 2.50816C7.94481 2.15685 8.42078 1.959 8.91764 1.95859H9.85452C10.3514 1.959 10.8274 2.15684 11.1787 2.50816C11.53 2.85949 11.7278 3.33546 11.7283 3.83232V24.4436ZM23.9077 5.2371C23.9077 4.46083 24.5367 3.83179 25.313 3.83179C26.0893 3.83179 26.7183 4.46083 26.7183 5.2371V10.8584C26.7183 11.6346 26.0893 12.2637 25.313 12.2637C24.5367 12.2637 23.9077 11.6346 23.9077 10.8584V5.2371ZM19.2233 7.11086C19.2233 6.33459 19.8523 5.70554 20.6286 5.70554C21.4049 5.70554 22.0339 6.33459 22.0339 7.11086V10.8584C22.0339 11.6346 21.4049 12.2637 20.6286 12.2637C19.8523 12.2637 19.2233 11.6346 19.2233 10.8584V7.11086ZM31.4027 14.1374H33.2764V16.0112H13.602V12.2637H17.6782C18.1341 13.2332 19.0368 13.917 20.0932 14.0931C21.1497 14.2692 22.2255 13.9154 22.9708 13.1458C23.658 13.853 24.6275 14.2127 25.6096 14.1241C26.5916 14.0358 27.4816 13.5088 28.0312 12.6903C28.91 13.6129 30.1283 14.1362 31.4027 14.1374ZM31.4027 7.5793H28.5921V3.36335C28.5921 2.58708 29.2211 1.95803 29.9974 1.95803C30.7736 1.95803 31.4027 2.58708 31.4027 3.36335V7.5793ZM36.0871 7.67382C35.7788 7.61108 35.4647 7.5793 35.1502 7.5793H33.2764V5.2371C33.2764 4.46083 33.9055 3.83179 34.6818 3.83179C35.458 3.83179 36.0871 4.46083 36.0871 5.2371V7.67382ZM43.5821 16.0112H39.8346V12.2637H43.5821V16.0112ZM50.1402 24.4431C50.1394 24.94 49.942 25.4159 49.5907 25.7672C49.2393 26.1186 48.7634 26.316 48.2665 26.3168H47.3296C46.8328 26.316 46.3568 26.1186 46.0055 25.7672C45.6542 25.4159 45.4567 24.9399 45.4559 24.4431V3.83176C45.4563 3.33489 45.6542 2.85892 46.0055 2.50761C46.3568 2.15629 46.8328 1.95845 47.3296 1.95803H48.2665C48.7634 1.95845 49.2394 2.15628 49.5907 2.50761C49.942 2.85893 50.1398 3.33491 50.1402 3.83176V24.4431ZM54.8246 20.6956C54.8238 21.1924 54.6264 21.6684 54.2751 22.0197C53.9237 22.371 53.4478 22.5685 52.9509 22.5693H52.014V5.7055H52.9509C53.4478 5.70592 53.9237 5.90375 54.2751 6.25508C54.6264 6.6064 54.8242 7.08238 54.8246 7.57923V20.6956Z" fill="white" fill-opacity="0.85"/>
</svg>
