<svg width="35" height="36" viewBox="0 0 35 36" fill="none" xmlns="http://www.w3.org/2000/svg">
<path d="M13.8075 7.20248V10.7025M21.1925 7.20248V10.7025M9.6775 14.745H25.3225M35 18C35 27.665 27.165 35.5 17.5 35.5C7.83502 35.5 0 27.665 0 18C0 8.33502 7.83502 0.5 17.5 0.5C27.165 0.5 35 8.33502 35 18ZM20.125 27.9225H14.875C10.5 27.9225 7.875 24.7725 7.875 20.9225V15.6725C7.875 11.8225 10.5 8.67252 14.875 8.67252H20.125C24.5 8.67252 27.125 11.8225 27.125 15.6725V20.9225C27.125 24.7725 24.5 27.9225 20.125 27.9225Z" stroke="black" stroke-width="3" stroke-miterlimit="10" stroke-linecap="round" stroke-linejoin="round"/>
</svg>
