<svg width="171" height="21" viewBox="0 0 171 21" fill="none" xmlns="http://www.w3.org/2000/svg">
<path d="M108.986 10.5611C108.986 5.00451 104.509 0.5 98.9858 0.5C93.463 0.5 88.9858 5.00451 88.9858 10.5611C88.9858 15.5828 92.6427 19.7452 97.4233 20.5V13.4694H94.8843V10.5611H97.4233V8.34452C97.4233 5.82296 98.9163 4.43012 101.2 4.43012C102.295 4.43012 103.439 4.62663 103.439 4.62663V7.10261H102.178C100.936 7.10261 100.548 7.87822 100.548 8.6739V10.5611H103.322L102.878 13.4694H100.548V20.5C105.329 19.7452 108.986 15.583 108.986 10.5611Z" fill="#FF5722"/>
<path fill-rule="evenodd" clip-rule="evenodd" d="M133.986 1.5H125.986C123.224 1.5 120.986 3.73858 120.986 6.5V14.5C120.986 17.2614 123.224 19.5 125.986 19.5H133.986C136.747 19.5 138.986 17.2614 138.986 14.5V6.5C138.986 3.73858 136.747 1.5 133.986 1.5ZM137.236 14.5C137.23 16.2926 135.778 17.7445 133.986 17.75H125.986C124.193 17.7445 122.741 16.2926 122.736 14.5V6.5C122.741 4.70735 124.193 3.25549 125.986 3.25H133.986C135.778 3.25549 137.23 4.70735 137.236 6.5V14.5ZM134.736 6.75C135.288 6.75 135.736 6.30228 135.736 5.75C135.736 5.19772 135.288 4.75 134.736 4.75C134.184 4.75 133.736 5.19772 133.736 5.75C133.736 6.30228 134.184 6.75 134.736 6.75ZM129.986 6C127.501 6 125.486 8.01472 125.486 10.5C125.486 12.9853 127.501 15 129.986 15C132.471 15 134.486 12.9853 134.486 10.5C134.489 9.3057 134.015 8.15957 133.171 7.31508C132.326 6.47059 131.18 5.99734 129.986 6ZM127.236 10.5C127.236 12.0188 128.467 13.25 129.986 13.25C131.505 13.25 132.736 12.0188 132.736 10.5C132.736 8.9812 131.505 7.75 129.986 7.75C128.467 7.75 127.236 8.9812 127.236 10.5Z" fill="#FF5722"/>
<path d="M170.593 5.69703C170.479 5.27443 170.256 4.88903 169.947 4.57919C169.638 4.26936 169.253 4.04589 168.831 3.93103C167.265 3.50103 161 3.49403 161 3.49403C161 3.49403 154.736 3.48703 153.169 3.89803C152.747 4.01817 152.363 4.2448 152.053 4.55616C151.744 4.86752 151.52 5.25315 151.403 5.67603C150.99 7.24203 150.986 10.49 150.986 10.49C150.986 10.49 150.982 13.754 151.392 15.304C151.622 16.161 152.297 16.838 153.155 17.069C154.737 17.499 160.985 17.506 160.985 17.506C160.985 17.506 167.25 17.513 168.816 17.103C169.238 16.9884 169.624 16.7654 169.933 16.4562C170.243 16.147 170.467 15.7623 170.583 15.34C170.997 13.775 171 10.528 171 10.528C171 10.528 171.02 7.26303 170.593 5.69703ZM158.996 13.499L159.001 7.49903L164.208 10.504L158.996 13.499Z" fill="#FF5722"/>
</svg>
