<svg width="41" height="40" viewBox="0 0 41 40" fill="none" xmlns="http://www.w3.org/2000/svg">
<path fill-rule="evenodd" clip-rule="evenodd" d="M40.0887 20C40.0887 25.3043 37.9815 30.3914 34.2308 34.1421C30.4801 37.8929 25.393 40 20.0887 40C14.7844 40 9.69728 37.8929 5.94655 34.1421C2.19582 30.3914 0.0886841 25.3043 0.0886841 20C0.0886841 14.6957 2.19582 9.60859 5.94655 5.85786C9.69728 2.10714 14.7844 0 20.0887 0C25.393 0 30.4801 2.10714 34.2308 5.85786C37.9815 9.60859 40.0887 14.6957 40.0887 20ZM30.1637 12.425C29.9851 12.247 29.7725 12.1069 29.5385 12.013C29.3045 11.9191 29.054 11.8734 28.802 11.8785C28.5499 11.8837 28.3015 11.9396 28.0716 12.0429C27.8416 12.1463 27.6349 12.2949 27.4637 12.48L18.7812 23.5425L13.5487 18.3075C13.1932 17.9763 12.7231 17.796 12.2374 17.8046C11.7516 17.8131 11.2882 18.0099 10.9446 18.3534C10.6011 18.697 10.4043 19.1604 10.3957 19.6462C10.3872 20.1319 10.5675 20.6021 10.8987 20.9575L17.5137 27.575C17.6919 27.7529 17.9041 27.893 18.1376 27.9871C18.3712 28.0812 18.6213 28.1273 18.873 28.1226C19.1248 28.118 19.373 28.0627 19.6029 27.96C19.8328 27.8573 20.0397 27.7094 20.2112 27.525L30.1912 15.05C30.5314 14.6962 30.7194 14.2232 30.7147 13.7324C30.71 13.2416 30.5131 12.7722 30.1662 12.425H30.1637Z" fill="#FF7347"/>
</svg>
