<svg width="31" height="36" viewBox="0 0 31 36" fill="none" xmlns="http://www.w3.org/2000/svg">
<path d="M0.838641 28.3371H10.0637V30.4337C10.0637 32.9812 7.99859 35.0462 5.45117 35.0462C2.90374 35.0462 0.838641 32.9812 0.838641 30.4337V28.3371ZM7.64586 21.628L7.71991 21.4059C9.00657 17.8746 9.22505 17.2191 9.22505 16.5961C9.22505 15.339 8.88535 13.8411 8.34002 12.7833C7.9342 11.9962 7.64841 11.7666 7.54777 11.7666C5.40229 11.7666 3.35456 14.0542 3.35456 16.5961C3.35456 18.2043 3.48064 19.5703 3.73487 21.2228C3.74503 21.2888 3.769 21.439 3.79924 21.628H7.64586ZM7.54777 8.41206C10.9023 8.41206 12.5796 13.2416 12.5796 16.5961C12.5796 18.2734 11.741 19.9507 10.9023 22.4666L10.0637 24.9826H0.838641C0.838641 23.3053 0 20.7893 0 16.5961C0 12.403 3.35092 8.41206 7.54777 8.41206ZM27.7657 21.7929L27.4016 23.8578C26.9593 26.3665 24.5668 28.0416 22.0581 27.5991C19.5494 27.1568 17.8743 24.7645 18.3168 22.2558L18.6807 20.1911L27.7657 21.7929ZM26.0054 14.67C26.2822 13.8317 26.5101 13.1703 26.513 13.1608C26.8514 12.0569 27.1183 10.9754 27.3268 9.79346C27.7682 7.29006 26.1488 4.68171 24.036 4.30915C23.9368 4.29167 23.6155 4.4681 23.0791 5.17283C22.3583 6.11984 21.7637 7.53604 21.5455 8.77406C21.4477 9.32789 21.4632 9.45206 21.9989 12.5697C22.0724 12.9978 22.1351 13.3845 22.1925 13.772L22.2268 14.0037L26.0054 14.67ZM24.6185 1.00554C28.7515 1.73432 31.3585 6.24646 30.6304 10.376C29.9022 14.5055 28.6394 16.8375 28.3482 18.4893L19.2632 16.8875L18.8743 14.2641C18.4852 11.6408 17.9506 9.84334 18.2418 8.19154C18.8243 4.88794 21.3147 0.42302 24.6185 1.00554Z" fill="black"/>
</svg>
